<svg width="31" height="31" viewBox="0 0 31 31" fill="none" xmlns="http://www.w3.org/2000/svg">
<path d="M15.25 0C6.82676 0 0 6.82676 0 15.25C0 23.6732 6.82676 30.5 15.25 30.5C23.6732 30.5 30.5 23.6732 30.5 15.25C30.5 6.82676 23.6732 0 15.25 0ZM21.3619 16.5963L14.69 23.2682C13.9454 24.0128 12.7391 24.0128 11.9945 23.2682C11.2499 22.5235 11.2499 21.3172 11.9945 20.5726L17.323 15.25L11.9975 9.92441C11.2528 9.17979 11.2528 7.97349 11.9975 7.22886C12.7421 6.48423 13.9484 6.48423 14.693 7.22886L21.3649 13.9007C21.7372 14.273 21.9219 14.7615 21.9219 15.25C21.9219 15.7385 21.7372 16.227 21.3619 16.5963Z" fill="white"/>
</svg>
