<svg width="31" height="31" viewBox="0 0 31 31" fill="none" xmlns="http://www.w3.org/2000/svg">
<path d="M15.25 0C23.6732 0 30.5 6.82676 30.5 15.25C30.5 23.6732 23.6732 30.5 15.25 30.5C6.82676 30.5 0 23.6732 0 15.25C0 6.82676 6.82676 0 15.25 0ZM9.13809 16.5963L15.81 23.2682C16.5546 24.0128 17.7609 24.0128 18.5055 23.2682C19.2501 22.5235 19.2501 21.3172 18.5055 20.5726L13.177 15.25L18.5025 9.92441C19.2472 9.17979 19.2472 7.97349 18.5025 7.22886C17.7579 6.48423 16.5516 6.48423 15.807 7.22886L9.13511 13.9007C8.76279 14.273 8.57812 14.7615 8.57812 15.25C8.57812 15.7385 8.76279 16.227 9.13809 16.5963Z" fill="white"/>
</svg>
